<?xml version="1.0" encoding="windows-1252"?>
<!-- Generator: Adobe Illustrator 19.0.0, SVG Export Plug-In . SVG Version: 6.00 Build 0)  -->
<svg version="1.1" id="Capa_1" xmlns="http://www.w3.org/2000/svg" xmlns:xlink="http://www.w3.org/1999/xlink" x="0px" y="0px" viewBox="0 0 512 512" style="enable-background:new 0 0 512 512;" xml:space="preserve">
<path style="fill:#FF4C4C;" d="M402.475,119.543C350.333,98.632,308.409,155.745,256,132.322c0-30.468,0-60.936,0-91.404  c52.877,23.631,95.08-34.713,147.873-12.2c0.677,0.289,1.117,0.965,1.117,1.701v87.418  C404.989,119.134,403.679,120.026,402.475,119.543z"/>
<path style="fill:#EA2828;" d="M403.873,28.718c-15.869-6.767-30.781-6.224-45.314-2.802v91.402  c14.106-3.322,28.568-3.93,43.916,2.226c1.204,0.483,2.514-0.409,2.514-1.706V30.419C404.989,29.683,404.55,29.007,403.873,28.718z"/>
<path style="fill:#2C5871;" d="M256,260.469c-4.382,0-7.935-3.553-7.935-7.935V39.578c0-4.382,3.553-7.935,7.935-7.935  c4.383,0,7.935,3.553,7.935,7.935v212.956C263.935,256.916,260.383,260.469,256,260.469z"/>
<path style="fill:#B9BBC1;" d="M384.843,294.971L265.735,488.554h237.461c6.877,0,11.091-7.54,7.487-13.397L399.817,294.971  C396.385,289.392,388.276,289.392,384.843,294.971z"/>
<path style="fill:#A0A3AA;" d="M510.682,475.157L399.817,294.971c-3.432-5.579-11.541-5.579-14.974,0l-18.991,30.866  l100.117,162.717h37.227C510.072,488.554,514.286,481.014,510.682,475.157z"/>
<g>
	<path style="fill:#B9BBC1;" d="M112.183,294.971L1.318,475.157c-3.604,5.857,0.61,13.397,7.487,13.397h237.461L127.157,294.971   C123.724,289.392,115.615,289.392,112.183,294.971z"/>
	<path style="fill:#B9BBC1;" d="M248.513,205.779L74.527,488.554h362.947L263.487,205.779   C260.054,200.201,251.946,200.201,248.513,205.779z"/>
</g>
<g>
	<path style="fill:#A0A3AA;" d="M263.487,205.779c-3.432-5.579-11.541-5.579-14.974,0l-15.615,25.379l158.371,257.396h46.204   L263.487,205.779z"/>
	<polygon style="fill:#A0A3AA;" points="136.68,310.449 27.095,488.554 74.527,488.554 160.396,348.994  "/>
</g>
<g>
</g>
<g>
</g>
<g>
</g>
<g>
</g>
<g>
</g>
<g>
</g>
<g>
</g>
<g>
</g>
<g>
</g>
<g>
</g>
<g>
</g>
<g>
</g>
<g>
</g>
<g>
</g>
<g>
</g>
</svg>